<svg xmlns="http://www.w3.org/2000/svg" version="1.1" xmlns:xlink="http://www.w3.org/1999/xlink" xmlns:svgjs="http://svgjs.dev/svgjs" width="1000" height="1000" viewBox="0 0 1000 1000"><rect width="1000" height="1000" fill="#ffffff"></rect><g transform="matrix(0.7,0,0,0.7,149.57575757575756,282.1265587044535)"><svg viewBox="0 0 396 247" data-background-color="#ffffff" preserveAspectRatio="xMidYMid meet" height="623" width="1000" xmlns="http://www.w3.org/2000/svg" xmlns:xlink="http://www.w3.org/1999/xlink"><g id="tight-bounds" transform="matrix(1,0,0,1,0.2400000000000091,-0.09999999999999432)"><svg viewBox="0 0 395.52 247.2" height="247.2" width="395.52"><g><svg></svg></g><g><svg viewBox="0 0 395.52 247.2" height="247.2" width="395.52"><g transform="matrix(1,0,0,1,98.50555277477301,47.215199999999996)"><svg viewBox="0 0 198.50889445045397 152.7696" height="152.7696" width="198.50889445045397"><g><svg viewBox="0 0 244.43135999999998 188.11087129386107" height="152.7696" width="198.50889445045397"><g transform="matrix(1,0,0,1,0,116.26006509348298)"><svg viewBox="0 0 244.43135999999998 71.85080620037809" height="71.85080620037809" width="244.43135999999998"><g><svg viewBox="0 0 244.43135999999998 71.85080620037809" height="71.85080620037809" width="244.43135999999998"><g><svg viewBox="0 0 244.43135999999998 71.85080620037809" height="71.85080620037809" width="244.43135999999998"><g transform="matrix(1,0,0,1,0,0)"><svg width="244.43135999999998" viewBox="1.05 -35.1 158.69 46.650000000000006" height="71.85080620037809" data-palette-color="#636365"><g class="undefined-text-0" data-fill-palette-color="primary" id="text-0"><path d="M18.25 0.85L18.25 0.85Q13.4 0.85 9.5-1.15 5.6-3.15 3.33-7.05 1.05-10.95 1.05-16.55L1.05-16.55Q1.05-20.75 2.43-24 3.8-27.25 6.23-29.48 8.65-31.7 11.8-32.83 14.95-33.95 18.5-33.95L18.5-33.95Q21.25-33.95 23.65-33.33 26.05-32.7 28.25-31.5L28.25-31.5 28.45-24.95 27.1-24.95 25-28.9Q24.5-29.9 23.93-30.7 23.35-31.5 22.45-31.85L22.45-31.85Q21.2-32.45 19.5-32.45L19.5-32.45Q16.55-32.45 14.13-30.95 11.7-29.45 10.25-25.98 8.8-22.5 8.8-16.5L8.8-16.5Q8.8-10.55 10.18-7.05 11.55-3.55 13.9-2.08 16.25-0.6 19.2-0.6L19.2-0.6Q20.55-0.6 21.4-0.8 22.25-1 23.1-1.35L23.1-1.35Q24.1-1.75 24.65-2.53 25.2-3.3 25.6-4.3L25.6-4.3 27.5-8.85 28.85-8.85 28.65-1.65Q26.5-0.45 23.9 0.2 21.3 0.85 18.25 0.85ZM42.7 0L31.3 0 31.3-1 31.95-1.2Q33.75-1.75 33.75-3.7L33.75-3.7 33.75-29.45Q33.75-30.5 33.4-31.03 33.05-31.55 32.05-31.8L32.05-31.8 31.3-32 31.3-32.95 39.75-35.1 40.55-34.65 40.35-27.6 40.35-21.2Q42.1-22.65 44.17-23.7 46.25-24.75 48.65-24.75L48.65-24.75Q51.95-24.75 53.82-22.9 55.7-21.05 55.7-17.2L55.7-17.2 55.7-3.65Q55.7-2.65 56.1-2.05 56.5-1.45 57.5-1.15L57.5-1.15 57.95-1 57.95 0 46.55 0 46.55-1 47.15-1.2Q48.95-1.7 48.95-3.7L48.95-3.7 48.95-18.15Q48.95-20.2 48.25-21 47.55-21.8 45.8-21.8L45.8-21.8Q44.6-21.8 43.27-21.35 41.95-20.9 40.5-19.85L40.5-19.85 40.5-3.6Q40.5-2.6 40.9-2 41.3-1.4 42.25-1.15L42.25-1.15 42.7-1 42.7 0ZM67.2 0.7L67.2 0.7Q64.34 0.7 62.37-0.93 60.4-2.55 60.4-5.6L60.4-5.6Q60.4-8 62.72-10.03 65.05-12.05 70.05-13L70.05-13Q70.9-13.2 72.02-13.38 73.15-13.55 74.25-13.75L74.25-13.75 74.25-17.3Q74.25-20.7 73.4-22 72.55-23.3 70.7-23.3L70.7-23.3 70.55-23.3Q69.4-23.3 68.72-22.58 68.05-21.85 67.84-20.2L67.84-20.2 67.7-19.55Q67.55-17.55 66.65-16.63 65.75-15.7 64.4-15.7L64.4-15.7Q63.15-15.7 62.32-16.48 61.5-17.25 61.5-18.5L61.5-18.5Q61.5-20.55 62.9-21.95 64.3-23.35 66.62-24.05 68.95-24.75 71.65-24.75L71.65-24.75Q76.09-24.75 78.45-22.6 80.8-20.45 80.8-15.6L80.8-15.6 80.8-4.45Q80.8-2.3 82.84-2.3L82.84-2.3 84-2.3 84.5-1.75Q83.59-0.6 82.5 0.03 81.4 0.65 79.5 0.65L79.5 0.65Q77.34 0.65 76.07-0.38 74.8-1.4 74.4-3.1L74.4-3.1Q72.8-1.4 71.25-0.35 69.7 0.7 67.2 0.7ZM70.09-2.5L70.09-2.5Q71.09-2.5 72-2.95 72.9-3.4 74.25-4.45L74.25-4.45 74.25-12.45Q72.95-12.25 71.59-11.95L71.59-11.95Q69.45-11.45 68.12-10.1 66.8-8.75 66.8-6.45L66.8-6.45Q66.8-4.45 67.72-3.48 68.65-2.5 70.09-2.5ZM95.04 0.7L95.04 0.7Q91.94 0.7 90.17-0.83 88.39-2.35 88.39-5.8L88.39-5.8Q88.39-7 88.42-8.08 88.44-9.15 88.44-10.6L88.44-10.6 88.44-22.45 84.89-22.45 84.89-23.55 86.24-23.75Q87.69-24 88.72-24.65 89.74-25.3 90.59-26.45L90.59-26.45 93.84-30.95 95.34-30.95 95.19-24 100.89-24 100.89-22.45 95.14-22.45 95.14-5.4Q95.14-3.6 95.92-2.7 96.69-1.8 97.84-1.8L97.84-1.8Q98.84-1.8 99.64-2.27 100.44-2.75 101.24-3.55L101.24-3.55 101.89-2.8Q100.94-1.15 99.24-0.23 97.54 0.7 95.04 0.7ZM109.34-27.5L109.34-27.5Q107.69-27.5 106.54-28.55 105.39-29.6 105.39-31.2L105.39-31.2Q105.39-32.85 106.54-33.88 107.69-34.9 109.34-34.9L109.34-34.9Q110.99-34.9 112.14-33.88 113.29-32.85 113.29-31.2L113.29-31.2Q113.29-29.6 112.14-28.55 110.99-27.5 109.34-27.5ZM115.04 0L103.59 0 103.59-0.95 104.34-1.15Q105.34-1.45 105.69-2.05 106.04-2.65 106.09-3.65L106.09-3.65 106.09-12.85Q106.09-14.4 106.09-15.73 106.09-17.05 106.04-18.45L106.04-18.45Q106.04-19.45 105.67-20.03 105.29-20.6 104.29-20.8L104.29-20.8 103.59-20.95 103.59-21.85 112.34-24.75 112.94-24.2 112.79-17.1 112.79-3.6Q112.79-2.6 113.17-2 113.54-1.4 114.49-1.1L114.49-1.1 115.04-0.95 115.04 0ZM126.64 0.7L126.64 0.7Q123.54 0.7 121.76-0.83 119.99-2.35 119.99-5.8L119.99-5.8Q119.99-7 120.01-8.08 120.04-9.15 120.04-10.6L120.04-10.6 120.04-22.45 116.49-22.45 116.49-23.55 117.84-23.75Q119.29-24 120.31-24.65 121.34-25.3 122.19-26.45L122.19-26.45 125.44-30.95 126.94-30.95 126.79-24 132.49-24 132.49-22.45 126.74-22.45 126.74-5.4Q126.74-3.6 127.51-2.7 128.29-1.8 129.44-1.8L129.44-1.8Q130.44-1.8 131.24-2.27 132.04-2.75 132.84-3.55L132.84-3.55 133.49-2.8Q132.54-1.15 130.84-0.23 129.14 0.7 126.64 0.7ZM145.94-8.55L145.94-8.55Q142.64-8.55 140.28-9.65L140.28-9.65 140.28-7.85Q140.28-6.35 141.78-6.05L141.78-6.05 150.69-4.4Q153.24-3.9 155.19-3.18 157.14-2.45 158.24-1.13 159.34 0.2 159.34 2.45L159.34 2.45Q159.34 4.85 157.76 6.93 156.19 9 153.11 10.28 150.03 11.55 145.44 11.55L145.44 11.55Q141.49 11.55 139.16 10.73 136.84 9.9 135.84 8.6 134.84 7.3 134.84 5.8L134.84 5.8Q134.84 4 136.06 2.2 137.28 0.4 139.24-0.8L139.24-0.8Q136.19-1.95 136.19-4.45L136.19-4.45Q136.19-5.4 136.64-6.2 137.09-7 137.74-7.8L137.74-7.8 139.53-10.05Q135.94-12.15 135.94-16.6L135.94-16.6Q135.94-20.25 138.51-22.5 141.09-24.75 145.94-24.75L145.94-24.75Q150.78-24.75 153.44-22.5L153.44-22.5Q155.04-22.75 156.44-23.3 157.84-23.85 159.04-24.8L159.04-24.8 159.74-24.3 159.74-21.5 154.34-21.5Q155.94-19.5 155.94-16.6L155.94-16.6Q155.94-13.05 153.36-10.8 150.78-8.55 145.94-8.55ZM145.84-9.9L145.84-9.9Q147.94-9.9 148.91-11.53 149.89-13.15 149.89-16.75L149.89-16.75Q149.89-20.3 148.94-21.85 147.99-23.4 145.99-23.4L145.99-23.4Q143.99-23.4 143.01-21.83 142.03-20.25 142.03-16.65L142.03-16.65Q142.03-13.05 142.94-11.48 143.84-9.9 145.84-9.9ZM138.74 4.35L138.74 4.35Q138.74 7.1 140.49 8.47 142.24 9.85 146.03 9.85L146.03 9.85Q150.24 9.85 152.26 8.47 154.29 7.1 154.29 4.85L154.29 4.85Q154.29 3.45 153.26 2.65 152.24 1.85 149.84 1.4L149.84 1.4 140.89-0.35Q140.69-0.4 140.49-0.45L140.49-0.45Q139.74 0.55 139.24 1.85 138.74 3.15 138.74 4.35Z" fill="#000000" data-fill-palette-color="primary"></path></g></svg></g></svg></g></svg></g></svg></g><g transform="matrix(1,0,0,1,81.34259337080124,0)"><svg viewBox="0 0 81.74617325839752 99.29781416892253" height="99.29781416892253" width="81.74617325839752"><g><svg xmlns="http://www.w3.org/2000/svg" xmlns:xlink="http://www.w3.org/1999/xlink" version="1.1" x="0" y="0" viewBox="9 1 81.501 99.00000000000001" enable-background="new 0 0 100 100" xml:space="preserve" width="81.74617325839752" height="99.29781416892253" class="icon-icon-0" data-fill-palette-color="accent" id="icon-0"><g fill="#89939e" data-fill-palette-color="accent"><path d="M35.75 83.873c0-0.928 0.748-1.623 1.633-1.623h4.027c0.877 0 1.59 0.695 1.59 1.623v4.24c0 0.926-0.713 1.637-1.59 1.637h-4.027c-0.885 0-1.633-0.711-1.633-1.637V83.873z" fill="#000000" data-fill-palette-color="accent"></path><path fill="#000000" d="M68.25 46.5h2.27l7.668 7.695c0.718 0.717 1.677 1.111 2.652 1.111 0.483 0 0.926-0.086 1.39-0.278 1.401-0.581 2.271-1.94 2.271-3.458v-5.881c1.25-0.495 2.128-1.19 2.998-2.061 1.858-1.858 3.002-4.289 3.002-6.669V25.271c0-2.38-1.1-4.774-2.958-6.633-1.858-1.859-4.323-2.889-6.702-2.889h-2.09v-5.09c0-2.38-1.068-4.844-2.928-6.703C73.964 2.1 71.53 1 69.15 1H45.773c-2.38 0-4.775 1.1-6.635 2.958C37.281 5.816 36.25 8.28 36.25 10.66V15H17.959C13.008 15 9 19.084 9 24.173v66.546c0 5.09 4.008 9.281 8.959 9.281h41.359c4.957 0 8.932-4.191 8.932-9.281V46.5M57.462 42.75c-2.922 0-5.962-2.868-5.962-5.79 0-0.169 0-0.353 0-0.541L56.094 32H69.15c2.38 0 4.813-1.094 6.672-2.953 1.859-1.858 2.928-4.318 2.928-6.697V19.5c1 0 1.667 0 2.09 0 2.922 0 5.91 2.85 5.91 5.771s0 8.766 0 11.688c0 2.922-3 5.845-6 5.845v8.766l-8.678-8.82C66.959 42.75 58.924 42.75 57.462 42.75zM17.959 19.25H36.25v3.1c0 0.713 0.062 1.484 0.24 2.189l-0.016-0.047L20.678 24.5c-1.316 0-2.428 1.108-2.428 2.502v48.975c0 1.383 1.133 2.523 2.449 2.523H56.59c1.311 0 2.41-1.141 2.41-2.523L58.985 46.5H64v44.219c0 2.77-2.041 5.031-4.682 5.031H17.959c-2.629 0-4.709-2.262-4.709-5.031V24.173C13.25 21.397 15.33 19.25 17.959 19.25zM75 22.35c0 2.922-2.928 5.9-5.85 5.9-1.461 0-9.496 0-14.61 0l-8.79 8.71v-8.71h0.023c-0.008 0-0.016-0.001-0.023-0.001-1.139-0.006-2.264-0.464-3.214-1.192-0.878-0.673-1.606-1.577-2.054-2.572C40.176 23.8 40 23.072 40 22.35c0-2.923 0-8.768 0-11.689s2.852-5.91 5.773-5.91 20.455 0 23.377 0S75 7.738 75 10.66 75 19.427 75 22.35z" data-fill-palette-color="accent"></path></g></svg></g></svg></g><g></g></svg></g></svg></g><g><path d="M168.648 33.44A99.254 99.254 0 0 1 226.872 33.44L221.61 33.44A93.992 93.992 0 0 0 173.91 33.44L168.648 33.44M168.648 213.76A99.254 99.254 0 0 0 226.872 213.76L221.61 213.76A93.992 93.992 0 0 1 173.91 213.76L168.648 213.76" fill="#636365" stroke="transparent" data-fill-palette-color="tertiary"></path></g></svg></g><defs></defs></svg><rect width="395.52" height="247.2" fill="none" stroke="none" visibility="hidden"></rect></g></svg></g></svg>