<svg xmlns="http://www.w3.org/2000/svg" version="1.1" xmlns:xlink="http://www.w3.org/1999/xlink" xmlns:svgjs="http://svgjs.dev/svgjs" width="1000" height="1000" viewBox="0 0 1000 1000"><rect width="1000" height="1000" fill="#ffffff"></rect><g transform="matrix(0.7,0,0,0.7,149.5757630659058,393.6187518243347)"><svg viewBox="0 0 396 120" data-background-color="#ffffff" preserveAspectRatio="xMidYMid meet" height="303" width="1000" xmlns="http://www.w3.org/2000/svg" xmlns:xlink="http://www.w3.org/1999/xlink"><g id="tight-bounds" transform="matrix(1,0,0,1,0.23999689414472414,0.1874105661472356)"><svg viewBox="0 0 395.52 119.62496550976498" height="119.62496550976498" width="395.52"><g><svg viewBox="0 0 597.6285865291197 180.75267761730265" height="119.62496550976498" width="395.52"><g transform="matrix(1,0,0,1,202.1085865291197,53.69024729821058)"><svg viewBox="0 0 395.52 73.3721830208815" height="73.3721830208815" width="395.52"><g><svg viewBox="0 0 395.52 73.3721830208815" height="73.3721830208815" width="395.52"><g><svg viewBox="0 0 395.52 45.23100381194409" height="45.23100381194409" width="395.52"><g transform="matrix(1,0,0,1,0,0)"><svg width="395.52" viewBox="4.449999809265137 -35.75 316.67999267578125 36" height="45.23100381194409" data-palette-color="#89939e"><g class="undefined-text-0" data-fill-palette-color="primary" id="text-0"><path d="M28.45 0L4.45 0 4.45-35.5 7.95-35.5 7.95-3.1 28.45-3.1 28.45 0ZM37.1 0L33.6 0 33.6-35.5 37.1-35.5 37.1 0ZM72.45 0L49.5-29.05 49.5 0 46 0 46-35.5 48.9-35.5 72.2-5.9 72.2-35.45 75.69-35.45 75.69 0 72.45 0ZM88.09 0L84.59 0 84.59-35.45 88.09-35.45 88.09-14.85 107.64-35.5 111.49-35.5 96.99-19.9 112.24 0 108.29 0 94.74-17.8 88.09-10.9 88.09 0Z" fill="#89939e" data-fill-palette-color="primary"></path><path d="M130.94 0.25L130.94 0.25Q127.39 0.25 124.34-1.28 121.29-2.8 119.04-5.4 116.79-8 115.57-11.2 114.34-14.4 114.34-17.8L114.34-17.8Q114.34-21.4 115.57-24.63 116.79-27.85 118.99-30.35 121.19-32.85 124.19-34.3 127.19-35.75 130.74-35.75L130.74-35.75Q135.99-35.75 139.29-33.6 142.59-31.45 144.29-28L144.29-28 141.59-26.2Q139.89-29.5 137.04-31.05 134.19-32.6 130.69-32.6L130.69-32.6Q127.74-32.6 125.37-31.35 122.99-30.1 121.29-28 119.59-25.9 118.72-23.25 117.84-20.6 117.84-17.75L117.84-17.75Q117.84-14.75 118.84-12.08 119.84-9.4 121.69-7.33 123.54-5.25 125.97-4.08 128.39-2.9 131.19-2.9L131.19-2.9Q134.44-2.9 137.34-4.53 140.24-6.15 142.89-9.55L142.89-9.55 142.89-5.85Q137.84 0.25 130.94 0.25ZM142.34 0L142.34-14.75 134.44-14.75 134.44-17.45 145.29-17.45 145.29 0 142.34 0ZM166.79 0.25L166.79 0.25Q163.04 0.25 159.99-1.25 156.94-2.75 154.74-5.33 152.54-7.9 151.34-11.13 150.14-14.35 150.14-17.75L150.14-17.75Q150.14-21.3 151.39-24.53 152.64-27.75 154.91-30.28 157.19-32.8 160.24-34.27 163.29-35.75 166.84-35.75L166.84-35.75Q170.59-35.75 173.64-34.2 176.69-32.65 178.86-30.05 181.04-27.45 182.24-24.25 183.44-21.05 183.44-17.7L183.44-17.7Q183.44-14.15 182.19-10.93 180.94-7.7 178.69-5.18 176.44-2.65 173.39-1.2 170.34 0.25 166.79 0.25ZM153.64-17.75L153.64-17.75Q153.64-14.85 154.59-12.18 155.54-9.5 157.29-7.43 159.04-5.35 161.46-4.13 163.89-2.9 166.79-2.9L166.79-2.9Q169.84-2.9 172.26-4.17 174.69-5.45 176.41-7.58 178.14-9.7 179.04-12.35 179.94-15 179.94-17.75L179.94-17.75Q179.94-20.65 178.99-23.3 178.04-25.95 176.26-28.05 174.49-30.15 172.09-31.35 169.69-32.55 166.79-32.55L166.79-32.55Q163.79-32.55 161.36-31.3 158.94-30.05 157.21-27.93 155.49-25.8 154.56-23.15 153.64-20.5 153.64-17.75ZM216.49 0L193.54-29.05 193.54 0 190.04 0 190.04-35.5 192.94-35.5 216.24-5.9 216.24-35.45 219.74-35.45 219.74 0 216.49 0ZM240.68 0L228.63 0 228.63-35.5 240.68-35.5Q246.33-35.5 250.11-33.13 253.88-30.75 255.78-26.73 257.68-22.7 257.68-17.8L257.68-17.8Q257.68-12.4 255.61-8.4 253.53-4.4 249.71-2.2 245.88 0 240.68 0L240.68 0ZM254.18-17.8L254.18-17.8Q254.18-22.05 252.61-25.35 251.03-28.65 248.03-30.53 245.03-32.4 240.68-32.4L240.68-32.4 232.13-32.4 232.13-3.1 240.68-3.1Q245.08-3.1 248.08-5.05 251.08-7 252.63-10.33 254.18-13.65 254.18-17.8ZM267.88-3.1L288.23-3.1 288.23 0 264.38 0 264.38-35.5 287.78-35.5 287.78-32.4 267.88-32.4 267.88-19.6 285.23-19.6 285.23-16.65 267.88-16.65 267.88-3.1ZM298.33 0L294.83 0 294.83-35.5 309.83-35.5Q312.13-35.5 314.03-34.55 315.93-33.6 317.35-31.98 318.78-30.35 319.55-28.38 320.33-26.4 320.33-24.35L320.33-24.35Q320.33-21.8 319.35-19.55 318.38-17.3 316.6-15.75 314.83-14.2 312.43-13.7L312.43-13.7 321.13 0 317.18 0 308.83-13.1 298.33-13.1 298.33 0ZM298.33-32.4L298.33-16.2 309.93-16.2Q312.03-16.2 313.58-17.35 315.13-18.5 315.98-20.38 316.83-22.25 316.83-24.35L316.83-24.35Q316.83-26.5 315.85-28.33 314.88-30.15 313.25-31.28 311.63-32.4 309.63-32.4L309.63-32.4 298.33-32.4Z" fill="#89939e" data-fill-palette-color="primary"></path></g></svg></g></svg></g><g transform="matrix(1,0,0,1,0,55.908958267852604)"><svg viewBox="0 0 232.209792 17.46322475302889" height="17.46322475302889" width="232.209792"><g transform="matrix(1,0,0,1,0,0)"><svg width="232.209792" viewBox="1.149999976158142 -35.849998474121094 482.8000183105469 36.3125" height="17.46322475302889" data-palette-color="#89939e"><path d="M13.2-13.2L18.7-13.2 18.7-8.4Q18.7-5.8 18.98-4.58 19.25-3.35 20.1-2.93 20.95-2.5 22.7-2.25L22.7-2.25Q22.9-1.75 22.98-1.15 23.05-0.55 23.05 0.15L23.05 0.15Q21.35 0.1 19.5 0.05 17.65 0 16.05 0L16.05 0Q14.8 0 13.4 0.03 12 0.05 10.73 0.05 9.45 0.05 8.65 0.1L8.65 0.1Q8.65-0.55 8.72-1.15 8.8-1.75 8.95-2.25L8.95-2.25Q10.85-2.45 11.75-2.83 12.65-3.2 12.93-4.35 13.2-5.5 13.2-7.9L13.2-7.9 13.2-13.2ZM25.35-26.45L17.9-11.25 14-11.25 5.1-28.6Q4.3-30.2 3.53-30.85 2.75-31.5 1.45-31.55L1.45-31.55Q1.25-32.15 1.2-32.73 1.15-33.3 1.15-33.9L1.15-33.9Q1.9-33.9 2.88-33.88 3.85-33.85 4.88-33.83 5.9-33.8 6.85-33.8L6.85-33.8Q7.8-33.8 9.13-33.8 10.45-33.8 11.73-33.83 13-33.85 13.8-33.9L13.8-33.9Q13.8-33.25 13.75-32.75 13.7-32.25 13.55-31.65L13.55-31.65Q11.65-31.45 11.4-30.55 11.15-29.65 12.2-27.55L12.2-27.55Q13.45-25.1 14.93-21.95 16.4-18.8 17.85-15.45L17.85-15.45 17.5-15.45Q19-18.9 20.38-21.8 21.75-24.7 22.85-26.95L22.85-26.95Q24.1-29.45 23.75-30.38 23.4-31.3 21.45-31.55L21.45-31.55Q21.3-32.15 21.2-32.7 21.1-33.25 21.1-33.9L21.1-33.9Q22.05-33.85 23.48-33.83 24.9-33.8 26.05-33.8L26.05-33.8Q27.2-33.8 28.35-33.83 29.5-33.85 30.4-33.9L30.4-33.9Q30.4-33.3 30.33-32.77 30.25-32.25 30.15-31.65L30.15-31.65Q28.9-31.35 27.75-30.15 26.6-28.95 25.35-26.45L25.35-26.45ZM45.1 0.45L45.1 0.45Q41.55 0.45 38.92-1.03 36.3-2.5 34.87-5.15 33.45-7.8 33.45-11.4L33.45-11.4Q33.45-14.9 34.97-17.6 36.5-20.3 39.15-21.83 41.8-23.35 45.15-23.35L45.15-23.35Q48.9-23.35 51.5-21.85 54.1-20.35 55.45-17.7 56.8-15.05 56.8-11.5L56.8-11.5Q56.8-8.05 55.35-5.33 53.9-2.6 51.27-1.07 48.65 0.45 45.1 0.45ZM45.6-2.2L45.6-2.2Q48.4-2.2 49.75-4.58 51.1-6.95 51.1-10.75L51.1-10.75Q51.1-13.85 50.22-16.13 49.35-18.4 47.87-19.58 46.4-20.75 44.65-20.75L44.65-20.75Q41.9-20.75 40.55-18.45 39.2-16.15 39.2-12.55L39.2-12.55Q39.2-9.35 39.97-7 40.75-4.65 42.2-3.43 43.65-2.2 45.6-2.2ZM70.09 0.2L70.09 0.2Q66.65 0.2 64.72-1.75 62.8-3.7 62.8-8.75L62.8-8.75 62.8-15.8Q62.8-17.7 62.3-18.57 61.8-19.45 59.55-19.5L59.55-19.5Q59.55-20.1 59.62-20.63 59.7-21.15 59.95-21.65L59.95-21.65Q61.8-21.75 63.77-22.25 65.75-22.75 66.9-23.35L66.9-23.35Q67.4-23.15 67.75-22.65 68.09-22.15 68.09-21L68.09-21 68.09-9.9Q68.09-6.55 68.95-4.85 69.8-3.15 71.95-3.15L71.95-3.15Q74.3-3.15 75.9-5.2 77.5-7.25 77.5-11.55L77.5-11.55 77.5-16.05Q77.5-17.95 76.87-18.82 76.25-19.7 73.8-19.75L73.8-19.75Q73.8-20.35 73.84-20.88 73.9-21.4 74.2-21.9L74.2-21.9Q76.4-22 78.42-22.43 80.45-22.85 81.59-23.35L81.59-23.35Q82.09-23.15 82.45-22.65 82.8-22.15 82.8-21L82.8-21 82.8-6.65 78.2-4.8Q77.95-4.1 77.5-3.45 77.05-2.8 76.45-2.25L76.45-2.25Q75.2-1.05 73.7-0.43 72.2 0.2 70.09 0.2ZM79.3 0.45L79.3 0.45Q78.7 0.2 78.32-0.33 77.95-0.85 77.95-2.45L77.95-2.45Q77.95-3.05 78.05-4.08 78.15-5.1 78.45-6.7L78.45-6.7 82.8-7.25Q82.8-6 83-5.2 83.2-4.4 83.84-4.05 84.5-3.7 85.84-3.7L85.84-3.7Q85.84-3.1 85.8-2.4 85.75-1.7 85.5-1.1L85.5-1.1Q84.09-1.05 82.34-0.65 80.59-0.25 79.3 0.45ZM98.44-11.35L98.44-7.75Q98.44-5.6 98.89-4.45 99.34-3.3 100.37-2.85 101.39-2.4 103.04-2.25L103.04-2.25Q103.19-1.8 103.27-1.2 103.34-0.6 103.34 0.15L103.34 0.15Q102.54 0.1 101.44 0.08 100.34 0.05 99.09 0.03 97.84 0 96.59 0L96.59 0Q94.69 0 92.64 0.03 90.59 0.05 89.44 0.15L89.44 0.15Q89.44-0.65 89.49-1.25 89.54-1.85 89.74-2.25L89.74-2.25Q91.09-2.35 91.82-2.75 92.54-3.15 92.84-4.1 93.14-5.05 93.14-6.8L93.14-6.8 93.14-11.35 98.44-11.35ZM97.54-15.3L98.44-14.65 98.44-10.6 93.14-10.6 93.14-16.15 98.44-21Q98.44-19.45 98.14-18.1 97.84-16.75 97.54-15.3L97.54-15.3ZM98.44-11.9L97.34-15Q97.84-16.35 98.17-17.32 98.49-18.3 98.84-18.9L98.84-18.9Q99.94-20.65 101.47-21.8 102.99-22.95 104.99-22.95L104.99-22.95Q106.89-22.95 108.44-21.75L108.44-21.75Q108.34-20.9 108.24-19.78 108.14-18.65 108.12-17.53 108.09-16.4 108.09-15.45L108.09-15.45Q107.54-15.25 106.64-15.1 105.74-14.95 104.84-14.95L104.84-14.95Q104.74-17.2 104.12-17.98 103.49-18.75 102.49-18.75L102.49-18.75Q101.69-18.75 100.72-17.8 99.74-16.85 99.09-15.3 98.44-13.75 98.44-11.9L98.44-11.9ZM98.44-21L93.14-10.6 93.14-15.8Q93.14-17.1 92.92-17.88 92.69-18.65 91.89-19.05 91.09-19.45 89.44-19.5L89.44-19.5Q89.44-20.1 89.54-20.65 89.64-21.2 89.89-21.65L89.89-21.65Q91.79-21.75 93.94-22.25 96.09-22.75 97.24-23.35L97.24-23.35Q97.74-23.15 98.09-22.65 98.44-22.15 98.44-21L98.44-21ZM128.84-2.9L128.19-4.45Q129.14-3.4 130.26-2.73 131.39-2.05 133.04-2.05L133.04-2.05Q134.09-2.05 135.26-2.45 136.44-2.85 137.54-3.9 138.64-4.95 139.31-6.8 139.99-8.65 139.99-11.65L139.99-11.65Q139.99-14.6 139.14-16.4 138.29-18.2 137.06-19.07 135.84-19.95 134.64-19.95L134.64-19.95Q133.24-19.95 131.91-19.05 130.59-18.15 129.71-16.13 128.84-14.1 128.84-10.7L128.84-10.7 128.84-2.9ZM132.84 0.45L132.84 0.45Q130.54 0.45 128.54 0 126.54-0.45 125.01-1.23 123.49-2 122.44-3L122.44-3Q123.04-3.7 123.31-5.03 123.59-6.35 123.59-9.1L123.59-9.1 123.59-28.45Q123.59-29.65 123.34-30.43 123.09-31.2 122.29-31.6 121.49-32 119.84-32L119.84-32Q119.84-32.6 119.94-33.15 120.04-33.7 120.29-34.15L120.29-34.15Q121.34-34.15 122.84-34.4 124.34-34.65 125.66-35.05 126.99-35.45 127.64-35.85L127.64-35.85Q128.14-35.65 128.49-35.15 128.84-34.65 128.84-33.65L128.84-33.65 128.84-21.3Q128.84-20.25 128.74-19.58 128.64-18.9 128.54-18.25L128.54-18.25 128.24-14.05 127.24-15.95Q127.94-17.65 128.49-18.57 129.04-19.5 129.39-19.9L129.39-19.9Q129.84-20.65 130.81-21.45 131.79-22.25 133.16-22.8 134.54-23.35 136.14-23.35L136.14-23.35Q139.09-23.35 141.21-22.2 143.34-21.05 144.49-18.63 145.64-16.2 145.64-12.4L145.64-12.4Q145.64-8.8 144.06-5.9 142.49-3 139.61-1.28 136.74 0.45 132.84 0.45ZM160.53 0.45L160.53 0.45Q156.78 0.45 154.36-1.15 151.94-2.75 150.71-5.45 149.49-8.15 149.49-11.4L149.49-11.4Q149.49-14.7 150.78-17.4 152.09-20.1 154.51-21.73 156.94-23.35 160.24-23.35L160.24-23.35Q163.59-23.35 165.64-21.95 167.69-20.55 168.71-18.2 169.74-15.85 169.89-12.9L169.89-12.9Q169.69-11.75 169.04-11L169.04-11Q168.04-11 166.31-11 164.59-11 162.46-10.98 160.34-10.95 158.11-10.88 155.89-10.8 153.94-10.7L153.94-10.7 153.94-13.45 164.24-13.45Q164.24-16.75 163.11-18.75 161.99-20.75 159.89-20.75L159.89-20.75Q158.69-20.75 157.59-20 156.49-19.25 155.78-17.48 155.09-15.7 155.09-12.55L155.09-12.55Q155.09-10.05 155.74-7.78 156.39-5.5 157.94-4.08 159.49-2.65 162.34-2.65L162.34-2.65Q163.99-2.65 165.61-3.35 167.24-4.05 168.49-5.35L168.49-5.35Q168.89-5.15 169.26-4.6 169.64-4.05 169.69-3.55L169.69-3.55Q167.94-1.4 165.66-0.48 163.39 0.45 160.53 0.45ZM190.08-21.65L190.08-21.65Q190.03-20.4 190.03-19.05 190.03-17.7 190.23-16.4L190.23-16.4Q189.68-16.1 188.91-15.93 188.13-15.75 187.33-15.75L187.33-15.75Q187.23-17.1 186.56-18.3 185.88-19.5 184.73-20.25 183.58-21 181.98-21L181.98-21Q180.53-21 179.68-20.3 178.83-19.6 178.83-18.45L178.83-18.45Q178.83-17.65 179.18-17.03 179.53-16.4 180.78-15.68 182.03-14.95 184.63-13.9L184.63-13.9Q187.38-12.9 188.93-11.88 190.48-10.85 191.16-9.63 191.83-8.4 191.83-6.6L191.83-6.6Q191.83-4.5 190.61-2.9 189.38-1.3 187.21-0.43 185.03 0.45 182.28 0.45L182.28 0.45Q179.23 0.45 177.41-0.03 175.58-0.5 173.78-1.35L173.78-1.35Q173.93-2.2 173.96-3.35 173.98-4.5 173.98-5.63 173.98-6.75 173.88-7.55L173.88-7.55Q174.33-7.9 175.18-8.05 176.03-8.2 176.83-8.2L176.83-8.2Q177.23-5.15 178.71-3.65 180.18-2.15 182.63-2.15L182.63-2.15Q184.48-2.15 185.56-2.98 186.63-3.8 186.63-5.15L186.63-5.15Q186.63-6 186.21-6.65 185.78-7.3 184.68-7.93 183.58-8.55 181.38-9.4L181.38-9.4Q178.78-10.45 177.16-11.4 175.53-12.35 174.78-13.68 174.03-15 174.03-17.05L174.03-17.05Q174.03-18.65 174.83-19.85 175.63-21.05 176.91-21.83 178.18-22.6 179.71-22.98 181.23-23.35 182.63-23.35L182.63-23.35Q185.03-23.35 186.78-22.93 188.53-22.5 190.08-21.65ZM204.38 0.45L204.38 0.45Q201.28 0.45 199.76-1.15 198.23-2.75 198.23-6.4L198.23-6.4 198.23-19.3Q197.48-19.55 196.66-19.73 195.83-19.9 194.63-19.95L194.63-19.95Q194.63-20.65 194.73-21.2 194.83-21.75 195.08-22.4L195.08-22.4 198.23-22.4 198.23-28.85Q199.43-29.1 200.61-29.7 201.78-30.3 202.58-31L202.58-31Q203.13-30.8 203.33-30.35 203.53-29.9 203.53-28.25L203.53-28.25 203.53-22.4 209.93-22.4Q209.93-21.8 209.83-21.15 209.73-20.5 209.48-19.9L209.48-19.9Q207.68-19.9 206.21-19.7 204.73-19.5 203.53-19.25L203.53-19.25 203.53-7.4Q203.53-5.65 203.86-4.58 204.18-3.5 204.81-3 205.43-2.5 206.33-2.5L206.33-2.5Q207.33-2.5 208.11-2.78 208.88-3.05 209.58-3.6L209.58-3.6Q210.23-2.8 210.33-1.7L210.33-1.7Q209.48-0.8 207.78-0.18 206.08 0.45 204.38 0.45ZM242.68-3.6L242.68-3.6Q241.33-1.6 239.28-0.58 237.23 0.45 234.38 0.45L234.38 0.45Q231.58 0.45 229.13-0.88 226.68-2.2 225.1-4.83 223.53-7.45 223.53-11.35L223.53-11.35Q223.53-14.35 224.78-17.1 226.03-19.85 228.43-21.6 230.83-23.35 234.28-23.35L234.28-23.35Q236.73-23.35 238.68-22.8 240.63-22.25 242.08-21.15L242.08-21.15Q241.88-19.7 241.78-18.28 241.68-16.85 241.68-15.3L241.68-15.3Q241.18-15.05 240.38-14.95 239.58-14.85 238.93-14.85L238.93-14.85Q238.68-17.75 237.38-19.28 236.08-20.8 233.98-20.8L233.98-20.8Q231.68-20.8 230.3-18.53 228.93-16.25 228.93-12.1L228.93-12.1Q228.93-9.7 229.73-7.53 230.53-5.35 232.1-4 233.68-2.65 235.98-2.65L235.98-2.65Q237.58-2.65 238.98-3.35 240.38-4.05 241.43-5.3L241.43-5.3Q241.88-5.05 242.2-4.6 242.53-4.15 242.68-3.6ZM270.02-14.95L270.02-6.6Q270.02-4.05 270.72-3.15 271.42-2.25 272.87-2.25L272.87-2.25Q273.02-1.75 273.1-1.2 273.17-0.65 273.17 0.15L273.17 0.15Q272.07 0.05 270.57 0.03 269.07 0 267.47 0L267.47 0Q266.47 0 265.27 0.03 264.07 0.05 263.02 0.08 261.97 0.1 261.17 0.15L261.17 0.15Q261.17-0.6 261.22-1.2 261.27-1.8 261.47-2.25L261.47-2.25Q263.17-2.25 263.97-3.2 264.77-4.15 264.77-6.7L264.77-6.7 264.77-13.65Q264.77-17.1 263.55-18.35 262.32-19.6 260.37-19.6L260.37-19.6Q259.07-19.6 257.82-18.75 256.57-17.9 255.75-16.1 254.92-14.3 254.92-11.35L254.92-11.35 254.92-6.6Q254.92-4.1 255.65-3.18 256.37-2.25 258.22-2.25L258.22-2.25Q258.37-1.75 258.45-1.18 258.52-0.6 258.52 0.15L258.52 0.15Q257.77 0.1 256.72 0.08 255.67 0.05 254.52 0.03 253.37 0 252.27 0L252.27 0Q251.27 0 250.07 0.03 248.87 0.05 247.8 0.08 246.72 0.1 245.97 0.15L245.97 0.15Q245.97-0.6 246.02-1.23 246.07-1.85 246.22-2.25L246.22-2.25Q248.17-2.25 248.92-3.18 249.67-4.1 249.67-6.6L249.67-6.6 249.67-15.8 254.92-21Q254.92-20.4 254.85-19.65 254.77-18.9 254.52-18.05L254.52-18.05Q254.72-18.4 254.92-18.8 255.12-19.2 255.47-19.65L255.47-19.65Q256.37-20.8 258.22-21.95 260.07-23.1 262.62-23.1L262.62-23.1Q264.62-23.1 266.3-22.33 267.97-21.55 269-19.78 270.02-18 270.02-14.95L270.02-14.95ZM249.67-26.9L249.67-28.45Q249.67-29.65 249.42-30.43 249.17-31.2 248.37-31.6 247.57-32 245.92-32L245.92-32Q245.92-32.6 246.02-33.15 246.12-33.7 246.37-34.15L246.37-34.15Q247.42-34.15 248.92-34.4 250.42-34.65 251.75-35.05 253.07-35.45 253.72-35.85L253.72-35.85Q254.22-35.65 254.57-35.15 254.92-34.65 254.92-33.65L254.92-33.65 254.92-26.9 249.67-26.9ZM249.67-14.9L249.67-28.7 254.92-28.7 254.92-21 249.67-14.9ZM292.37 0.45L292.37 0.45Q291.77 0.2 291.42-0.48 291.07-1.15 291.07-2.5L291.07-2.5Q291.07-3 291.15-3.68 291.22-4.35 291.37-4.95L291.37-4.95 291.52-4.95Q291.32-4 290.75-3.05 290.17-2.1 289.32-1.35L289.32-1.35Q288.42-0.6 287.07-0.13 285.72 0.35 283.87 0.35L283.87 0.35Q280.67 0.35 278.94-1.07 277.22-2.5 277.22-5.05L277.22-5.05Q277.22-7 278.15-8.38 279.07-9.75 280.55-10.68 282.02-11.6 283.77-12.15 285.52-12.7 287.25-13.03 288.97-13.35 290.37-13.55L290.37-13.55Q290.37-15.45 290.3-16.55 290.22-17.65 290-18.32 289.77-19 289.32-19.5L289.32-19.5Q288.72-20.2 287.97-20.55 287.22-20.9 286.32-20.9L286.32-20.9Q284.72-20.9 283.82-19.93 282.92-18.95 282.52-17.63 282.12-16.3 282.02-15.15L282.02-15.15Q281.32-15.15 280.42-15.25 279.52-15.35 278.97-15.55L278.97-15.55Q279.07-16.85 279.05-18.4 279.02-19.95 278.72-21.15L278.72-21.15Q280.82-22.2 283.22-22.78 285.62-23.35 287.67-23.35L287.67-23.35Q289.82-23.35 291.27-22.8 292.72-22.25 293.52-21.35L293.52-21.35Q294.77-20.15 295.22-18.18 295.67-16.2 295.67-12.8L295.67-12.8 295.67-7.65Q295.67-6.2 295.9-5.35 296.12-4.5 296.77-4.13 297.42-3.75 298.72-3.7L298.72-3.7Q298.77-3.1 298.69-2.4 298.62-1.7 298.37-1.1L298.37-1.1Q296.97-1.05 295.32-0.65 293.67-0.25 292.37 0.45ZM285.57-2.8L285.57-2.8Q286.67-2.8 287.77-3.53 288.87-4.25 289.62-5.73 290.37-7.2 290.37-9.6L290.37-9.6 290.37-11.35Q289.07-11.15 287.72-10.85 286.37-10.55 285.25-10 284.12-9.45 283.44-8.55 282.77-7.65 282.77-6.15L282.77-6.15Q282.77-4.4 283.62-3.6 284.47-2.8 285.57-2.8ZM311.17 0.45L311.17 0.45Q308.07 0.45 306.54-1.15 305.02-2.75 305.02-6.4L305.02-6.4 305.02-19.3Q304.27-19.55 303.44-19.73 302.62-19.9 301.42-19.95L301.42-19.95Q301.42-20.65 301.52-21.2 301.62-21.75 301.87-22.4L301.87-22.4 305.02-22.4 305.02-28.85Q306.22-29.1 307.39-29.7 308.57-30.3 309.37-31L309.37-31Q309.92-30.8 310.12-30.35 310.32-29.9 310.32-28.25L310.32-28.25 310.32-22.4 316.72-22.4Q316.72-21.8 316.62-21.15 316.52-20.5 316.27-19.9L316.27-19.9Q314.47-19.9 312.99-19.7 311.52-19.5 310.32-19.25L310.32-19.25 310.32-7.4Q310.32-5.65 310.64-4.58 310.97-3.5 311.59-3 312.22-2.5 313.12-2.5L313.12-2.5Q314.12-2.5 314.89-2.78 315.67-3.05 316.37-3.6L316.37-3.6Q317.02-2.8 317.12-1.7L317.12-1.7Q316.27-0.8 314.57-0.18 312.87 0.45 311.17 0.45ZM346.66-21.65L346.66-21.65Q346.61-20.4 346.61-19.05 346.61-17.7 346.81-16.4L346.81-16.4Q346.26-16.1 345.49-15.93 344.71-15.75 343.91-15.75L343.91-15.75Q343.81-17.1 343.14-18.3 342.46-19.5 341.31-20.25 340.16-21 338.56-21L338.56-21Q337.11-21 336.26-20.3 335.41-19.6 335.41-18.45L335.41-18.45Q335.41-17.65 335.76-17.03 336.11-16.4 337.36-15.68 338.61-14.95 341.21-13.9L341.21-13.9Q343.96-12.9 345.51-11.88 347.06-10.85 347.74-9.63 348.41-8.4 348.41-6.6L348.41-6.6Q348.41-4.5 347.19-2.9 345.96-1.3 343.79-0.43 341.61 0.45 338.86 0.45L338.86 0.45Q335.81 0.45 333.99-0.03 332.16-0.5 330.36-1.35L330.36-1.35Q330.51-2.2 330.54-3.35 330.56-4.5 330.56-5.63 330.56-6.75 330.46-7.55L330.46-7.55Q330.91-7.9 331.76-8.05 332.61-8.2 333.41-8.2L333.41-8.2Q333.81-5.15 335.29-3.65 336.76-2.15 339.21-2.15L339.21-2.15Q341.06-2.15 342.14-2.98 343.21-3.8 343.21-5.15L343.21-5.15Q343.21-6 342.79-6.65 342.36-7.3 341.26-7.93 340.16-8.55 337.96-9.4L337.96-9.4Q335.36-10.45 333.74-11.4 332.11-12.35 331.36-13.68 330.61-15 330.61-17.05L330.61-17.05Q330.61-18.65 331.41-19.85 332.21-21.05 333.49-21.83 334.76-22.6 336.29-22.98 337.81-23.35 339.21-23.35L339.21-23.35Q341.61-23.35 343.36-22.93 345.11-22.5 346.66-21.65ZM363.26 0.45L363.26 0.45Q359.51 0.45 357.08-1.15 354.66-2.75 353.44-5.45 352.21-8.15 352.21-11.4L352.21-11.4Q352.21-14.7 353.51-17.4 354.81-20.1 357.24-21.73 359.66-23.35 362.96-23.35L362.96-23.35Q366.31-23.35 368.36-21.95 370.41-20.55 371.44-18.2 372.46-15.85 372.61-12.9L372.61-12.9Q372.41-11.75 371.76-11L371.76-11Q370.76-11 369.04-11 367.31-11 365.19-10.98 363.06-10.95 360.83-10.88 358.61-10.8 356.66-10.7L356.66-10.7 356.66-13.45 366.96-13.45Q366.96-16.75 365.83-18.75 364.71-20.75 362.61-20.75L362.61-20.75Q361.41-20.75 360.31-20 359.21-19.25 358.51-17.48 357.81-15.7 357.81-12.55L357.81-12.55Q357.81-10.05 358.46-7.78 359.11-5.5 360.66-4.08 362.21-2.65 365.06-2.65L365.06-2.65Q366.71-2.65 368.33-3.35 369.96-4.05 371.21-5.35L371.21-5.35Q371.61-5.15 371.99-4.6 372.36-4.05 372.41-3.55L372.41-3.55Q370.66-1.4 368.38-0.48 366.11 0.45 363.26 0.45ZM385.36-11.35L385.36-7.75Q385.36-5.6 385.81-4.45 386.26-3.3 387.28-2.85 388.31-2.4 389.96-2.25L389.96-2.25Q390.11-1.8 390.18-1.2 390.26-0.6 390.26 0.15L390.26 0.15Q389.46 0.1 388.36 0.08 387.26 0.05 386.01 0.03 384.76 0 383.51 0L383.51 0Q381.61 0 379.56 0.03 377.51 0.05 376.36 0.15L376.36 0.15Q376.36-0.65 376.41-1.25 376.46-1.85 376.66-2.25L376.66-2.25Q378.01-2.35 378.73-2.75 379.46-3.15 379.76-4.1 380.06-5.05 380.06-6.8L380.06-6.8 380.06-11.35 385.36-11.35ZM384.46-15.3L385.36-14.65 385.36-10.6 380.06-10.6 380.06-16.15 385.36-21Q385.36-19.45 385.06-18.1 384.76-16.75 384.46-15.3L384.46-15.3ZM385.36-11.9L384.26-15Q384.76-16.35 385.08-17.32 385.41-18.3 385.76-18.9L385.76-18.9Q386.86-20.65 388.38-21.8 389.91-22.95 391.91-22.95L391.91-22.95Q393.81-22.95 395.36-21.75L395.36-21.75Q395.26-20.9 395.16-19.78 395.06-18.65 395.03-17.53 395.01-16.4 395.01-15.45L395.01-15.45Q394.46-15.25 393.56-15.1 392.66-14.95 391.76-14.95L391.76-14.95Q391.66-17.2 391.03-17.98 390.41-18.75 389.41-18.75L389.41-18.75Q388.61-18.75 387.63-17.8 386.66-16.85 386.01-15.3 385.36-13.75 385.36-11.9L385.36-11.9ZM385.36-21L380.06-10.6 380.06-15.8Q380.06-17.1 379.83-17.88 379.61-18.65 378.81-19.05 378.01-19.45 376.36-19.5L376.36-19.5Q376.36-20.1 376.46-20.65 376.56-21.2 376.81-21.65L376.81-21.65Q378.71-21.75 380.86-22.25 383.01-22.75 384.16-23.35L384.16-23.35Q384.66-23.15 385.01-22.65 385.36-22.15 385.36-21L385.36-21ZM408.5 0.45L408.5 0.45Q408-0.65 407.18-2.58 406.36-4.5 405.38-6.75 404.41-9 403.41-11.2 402.41-13.4 401.63-15.08 400.86-16.75 400.5-17.5L400.5-17.5Q399.86-18.8 399.41-19.43 398.96-20.05 398.53-20.3 398.11-20.55 397.41-20.65L397.41-20.65Q397.21-21.3 397.13-21.8 397.06-22.3 397.06-23.05L397.06-23.05Q398.16-23 399.61-22.95 401.06-22.9 402.71-22.9L402.71-22.9Q403.86-22.9 405.06-22.93 406.25-22.95 407.33-22.98 408.41-23 409.21-23.05L409.21-23.05Q409.21-22.45 409.11-21.83 409-21.2 408.86-20.7L408.86-20.7Q406.46-20.5 406.03-19.9 405.61-19.3 406.56-17.3L406.56-17.3Q406.96-16.45 407.58-15 408.21-13.55 408.93-11.73 409.66-9.9 410.41-8.03 411.16-6.15 411.75-4.55L411.75-4.55 410.96-4.55Q412.21-7.8 413.23-10.33 414.25-12.85 415.21-15.15L415.21-15.15Q416.41-18.15 415.91-19.33 415.41-20.5 413.56-20.65L413.56-20.65Q413.31-21.2 413.16-21.83 413-22.45 413-23.05L413-23.05Q414-23 415.25-22.95 416.5-22.9 417.71-22.9L417.71-22.9Q418.96-22.9 420.25-22.95 421.56-23 422.46-23.05L422.46-23.05Q422.46-22.35 422.36-21.73 422.25-21.1 422-20.65L422-20.65Q421.21-20.45 420.61-19.95 420-19.45 419.43-18.43 418.86-17.4 418.11-15.55L418.11-15.55 411.31-0.05Q410.75 0.2 409.98 0.35 409.21 0.5 408.5 0.45ZM425 0.15L425 0.15Q425-0.45 425.08-1.1 425.15-1.75 425.3-2.25L425.3-2.25Q427.3-2.3 428-3.2 428.7-4.1 428.7-6.6L428.7-6.6 428.7-15.95Q428.7-17.15 428.48-17.93 428.25-18.7 427.45-19.1 426.65-19.5 424.95-19.5L424.95-19.5Q424.95-20.1 425.08-20.65 425.2-21.2 425.45-21.65L425.45-21.65Q426.45-21.65 427.95-21.9 429.45-22.15 430.8-22.55 432.15-22.95 432.8-23.35L432.8-23.35Q433.3-23.15 433.65-22.65 434-22.15 434-21.15L434-21.15 434-6.6Q434-4.1 434.68-3.2 435.35-2.3 437-2.25L437-2.25Q437.15-1.75 437.2-1.05 437.25-0.35 437.25 0.15L437.25 0.15Q436.45 0.1 435.45 0.08 434.45 0.05 433.35 0.03 432.25 0 431.2 0L431.2 0Q430.1 0 428.98 0.03 427.85 0.05 426.83 0.08 425.8 0.1 425 0.15ZM430.9-28.5L430.9-28.5Q429.45-28.5 428.53-29.38 427.6-30.25 427.6-31.55L427.6-31.55Q427.6-33.05 428.6-33.95 429.6-34.85 430.95-34.85L430.95-34.85Q432.5-34.85 433.4-33.95 434.3-33.05 434.3-31.6L434.3-31.6Q434.3-30.35 433.33-29.43 432.35-28.5 430.9-28.5ZM460.05-3.6L460.05-3.6Q458.7-1.6 456.65-0.58 454.6 0.45 451.75 0.45L451.75 0.45Q448.95 0.45 446.5-0.88 444.05-2.2 442.48-4.83 440.9-7.45 440.9-11.35L440.9-11.35Q440.9-14.35 442.15-17.1 443.4-19.85 445.8-21.6 448.2-23.35 451.65-23.35L451.65-23.35Q454.1-23.35 456.05-22.8 458-22.25 459.45-21.15L459.45-21.15Q459.25-19.7 459.15-18.28 459.05-16.85 459.05-15.3L459.05-15.3Q458.55-15.05 457.75-14.95 456.95-14.85 456.3-14.85L456.3-14.85Q456.05-17.75 454.75-19.28 453.45-20.8 451.35-20.8L451.35-20.8Q449.05-20.8 447.68-18.53 446.3-16.25 446.3-12.1L446.3-12.1Q446.3-9.7 447.1-7.53 447.9-5.35 449.48-4 451.05-2.65 453.35-2.65L453.35-2.65Q454.95-2.65 456.35-3.35 457.75-4.05 458.8-5.3L458.8-5.3Q459.25-5.05 459.58-4.6 459.9-4.15 460.05-3.6ZM474.6 0.45L474.6 0.45Q470.85 0.45 468.42-1.15 466-2.75 464.77-5.45 463.55-8.15 463.55-11.4L463.55-11.4Q463.55-14.7 464.85-17.4 466.15-20.1 468.57-21.73 471-23.35 474.3-23.35L474.3-23.35Q477.65-23.35 479.7-21.95 481.75-20.55 482.77-18.2 483.8-15.85 483.95-12.9L483.95-12.9Q483.75-11.75 483.1-11L483.1-11Q482.1-11 480.37-11 478.65-11 476.52-10.98 474.4-10.95 472.17-10.88 469.95-10.8 468-10.7L468-10.7 468-13.45 478.3-13.45Q478.3-16.75 477.17-18.75 476.05-20.75 473.95-20.75L473.95-20.75Q472.75-20.75 471.65-20 470.55-19.25 469.85-17.48 469.15-15.7 469.15-12.55L469.15-12.55Q469.15-10.05 469.8-7.78 470.45-5.5 472-4.08 473.55-2.65 476.4-2.65L476.4-2.65Q478.05-2.65 479.67-3.35 481.3-4.05 482.55-5.35L482.55-5.35Q482.95-5.15 483.32-4.6 483.7-4.05 483.75-3.55L483.75-3.55Q482-1.4 479.72-0.48 477.45 0.45 474.6 0.45Z" opacity="1" transform="matrix(1,0,0,1,0,0)" fill="#89939e" class="undefined-text-1" data-fill-palette-color="secondary" id="text-1"></path></svg></g></svg></g></svg></g></svg></g><g><svg viewBox="0 0 180.75267761730265 180.75267761730265" height="180.75267761730265" width="180.75267761730265"><g><svg></svg></g><g id="icon-0"><svg viewBox="0 0 180.75267761730265 180.75267761730265" height="180.75267761730265" width="180.75267761730265"><g><path d="M0 90.376c0-49.913 40.463-90.376 90.376-90.376 49.913 0 90.376 40.463 90.377 90.376 0 49.913-40.463 90.376-90.377 90.377-49.913 0-90.376-40.463-90.376-90.377zM90.376 176.674c47.661 0 86.297-38.637 86.298-86.298 0-47.661-38.637-86.297-86.298-86.297-47.661 0-86.297 38.637-86.297 86.297 0 47.661 38.637 86.297 86.297 86.298z" data-fill-palette-color="accent" fill="#89939e" stroke="transparent"></path></g><g transform="matrix(1,0,0,1,36.146239840877534,50.52216581596924)"><svg viewBox="0 0 108.46019793554758 79.70834598536418" height="79.70834598536418" width="108.46019793554758"><g><svg xmlns="http://www.w3.org/2000/svg" xmlns:xlink="http://www.w3.org/1999/xlink" version="1.1" x="0" y="0" viewBox="7.552000045776367 18.47899627685547 87.46800231933594 64.28099822998047" enable-background="new 0 0 100 100" xml:space="preserve" height="79.70834598536418" width="108.46019793554758" class="icon-a-0" data-fill-palette-color="accent" id="a-0"><path d="M31.805 41.953c0-5.497 2.443-10.57 6.546-14.639-0.238-0.004-0.474-0.013-0.712-0.013-16.615 0-30.087 9.948-30.087 22.221 0 9.36 7.837 17.36 18.926 20.634l-0.585 12.604 8.693-11.016c0 0 1.642 0 3.053 0 7.925 0 15.129-2.267 20.502-5.965C43.185 63.725 31.805 53.826 31.805 41.953z" fill="#89939e" data-fill-palette-color="accent"></path><g fill="#89939e" data-fill-palette-color="accent"><path d="M76.966 82.062l-11.95-15.139h-2.081c-17.693 0-32.089-10.865-32.089-24.223 0-13.355 14.396-24.221 32.089-24.221 17.691 0 32.085 10.866 32.085 24.221 0 9.637-7.348 18.172-18.857 22.078L76.966 82.062zM62.935 22.48c-15.487 0-28.089 9.071-28.089 20.221 0 11.15 12.602 20.223 28.089 20.223h4.021l5.437 6.889-0.369-7.949 1.504-0.443C84.153 58.281 91.02 50.934 91.02 42.701 91.02 31.551 78.421 22.48 62.935 22.48z" fill="#89939e" data-fill-palette-color="accent"></path></g></svg></g></svg></g></svg></g></svg></g></svg></g><defs></defs></svg><rect width="395.52" height="119.62496550976498" fill="none" stroke="none" visibility="hidden"></rect></g></svg></g></svg>